<?xml version="1.0" encoding="UTF-8" standalone="no"?>
<svg
   width="355"
   height="196"
   fill="none"
   viewBox="0 0 355 196"
   version="1.1"
   id="svg5"
   sodipodi:docname="wordmark.svg"
   inkscape:version="1.3 (0e150ed, 2023-07-21)"
   xmlns:inkscape="http://www.inkscape.org/namespaces/inkscape"
   xmlns:sodipodi="http://sodipodi.sourceforge.net/DTD/sodipodi-0.dtd"
   xmlns="http://www.w3.org/2000/svg"
   xmlns:svg="http://www.w3.org/2000/svg">
  <sodipodi:namedview
     id="namedview5"
     pagecolor="#ffffff"
     bordercolor="#666666"
     borderopacity="1.0"
     inkscape:showpageshadow="2"
     inkscape:pageopacity="0.0"
     inkscape:pagecheckerboard="0"
     inkscape:deskcolor="#d1d1d1"
     inkscape:zoom="2.4081633"
     inkscape:cx="250.19068"
     inkscape:cy="117.72458"
     inkscape:window-width="2560"
     inkscape:window-height="1440"
     inkscape:window-x="0"
     inkscape:window-y="244"
     inkscape:window-maximized="0"
     inkscape:current-layer="g3" />
  <g
     fill="#124514"
     filter="url(#a)"
     id="g3">
    <path
       id="path1"
       d="m 160.58203,22 c -2.475,0 -4.56448,0.853549 -6.27148,2.560547 -1.621,1.620998 -2.43164,3.66758 -2.43164,6.142578 0,2.388998 0.85354,4.437533 2.56054,6.144531 1.707,1.706999 3.75358,2.560547 6.14258,2.560547 2.475,0 4.52353,-0.853548 6.14453,-2.560547 1.707,-1.706998 2.56055,-3.754533 2.56055,-6.144531 0,-2.473998 -0.85355,-4.52158 -2.56055,-6.142578 C 165.10556,22.853549 163.05703,22 160.58203,22 Z M 216.25,50.447266 c -0.768,-0.02125 -1.51474,0.05411 -2.24023,0.224609 -1.024,0.427 -2.3458,1.664893 -3.9668,3.712891 -1.536,2.047998 -2.30469,5.203707 -2.30469,9.470703 -0.006,1.284443 0.0798,2.567516 0.25586,3.839843 l -13.69531,23.167969 c -4.437,7.508993 -8.32044,12.971769 -11.64844,16.384769 -3.328,3.32799 -6.35689,4.99218 -9.08789,4.99218 -0.0104,0 -0.0189,0.002 -0.0293,0.002 -0.008,-4e-5 -0.0139,-0.002 -0.0215,-0.002 -2.56,0 -4.52367,-0.9394 -5.88867,-2.8164 -1.28,-1.963 -1.91993,-5.41819 -1.91993,-10.367189 V 63.599609 c -1.10899,-1.450998 -2.60347,-2.475266 -4.48046,-3.072265 -1.877,-0.597 -3.71191,-0.808672 -5.50391,-0.638672 -1.536,2.900997 -4.30932,5.37583 -8.32031,7.423828 -3.925,1.962998 -8.06402,2.943359 -12.41602,2.943359 -0.50848,0 -1.00481,-0.02419 -1.5039,-0.04297 -0.38921,-1.737079 -0.84664,-3.379089 -1.44727,-4.820313 -1.707,-4.095996 -3.9233,-6.144531 -6.6543,-6.144531 -1.707,0 -3.41409,0.725783 -5.12109,2.175781 -1.707,1.364999 -3.15656,3.199909 -4.35156,5.503906 -1.109,2.217998 -1.83478,4.607972 -2.17578,7.167969 1.96299,2.559998 5.03384,4.608533 9.21484,6.144531 v 1.535157 c 0,5.972994 -0.4692,11.265051 -1.4082,15.873047 -0.939,4.522994 -2.34566,8.106954 -4.22266,10.751954 -1.877,2.56 -4.26697,3.83984 -7.16797,3.83984 -3.584,0 -6.27245,-2.04853 -8.06445,-6.14453 -1.707,-4.09599 -2.560549,-10.623992 -2.560549,-19.583983 v -7.679688 c -1.706998,-0.596999 -3.626768,-0.896484 -5.759765,-0.896484 -1.029309,4.23e-4 -2.057085,0.08591 -3.072266,0.255859 -0.938999,0.17 -1.790595,0.384626 -2.558594,0.640625 v 7.679688 c 0,7.935992 -1.024267,14.208413 -3.072265,18.816403 -2.047998,4.608 -5.205661,6.91211 -9.472657,6.91211 -3.327996,0 -5.802829,-1.45056 -7.423828,-4.35156 -1.535998,-2.987 -2.304687,-7.59522 -2.304687,-13.824219 V 78.447266 c 0,-3.583997 -0.681877,-6.825566 -2.046875,-9.726563 -1.279999,-2.901997 -3.157815,-5.205111 -5.632813,-6.912109 -2.473997,-1.706999 -5.375128,-2.560547 -8.703125,-2.560547 -3.753996,0 -7.297003,1.109127 -10.625,3.328125 -3.327996,2.218998 -6.997816,6.571647 -11.007812,13.05664 L 24,82.03125 c 0.853999,1.108999 2.047986,2.262032 3.583984,3.457031 1.535999,1.194999 3.20019,2.004641 4.992188,2.431641 l 5.248047,-8.064453 c 2.644997,-4.095996 4.820345,-6.696642 6.527343,-7.806641 1.705999,-1.194999 3.071705,-1.792969 4.095704,-1.792969 2.047998,0 3.500516,1.024268 4.353515,3.072266 0.937999,1.962998 1.40625,4.393925 1.40625,7.294922 v 14.849609 c 0,8.788994 1.792957,15.614524 5.376953,20.478514 3.583997,4.864 8.618522,7.29688 15.103516,7.29688 4.009996,0 7.637863,-0.8955 10.880859,-2.6875 3.242997,-1.877 5.887549,-4.43669 7.935547,-7.67969 1.706999,3.328 3.967206,5.88769 6.783204,7.67969 2.816,1.792 5.97366,2.6875 9.47266,2.6875 5.37599,0 9.89936,-1.74905 13.56835,-5.24805 3.755,-3.584 6.57027,-8.53266 8.44727,-14.84766 1.877,-6.31499 2.81641,-13.611676 2.81641,-21.888668 0,-0.180894 -0.0163,-0.338543 -0.0176,-0.517578 3.66835,-0.01736 7.13366,-0.438145 10.39258,-1.273438 3.41299,-0.852999 6.44289,-2.007032 9.08789,-3.457031 v 24.449215 c 0,8.107 1.79295,13.95116 5.37695,17.53516 3.584,3.499 7.9786,5.24805 13.18359,5.24805 0.0105,0 0.0188,-0.002 0.0293,-0.002 0.007,5e-5 0.014,0.002 0.0215,0.002 5.54699,0 10.4537,-1.66419 14.7207,-4.99219 4.35199,-3.413 8.87341,-9.08745 13.5664,-17.02344 L 213.7539,79.599609 c 1.43467,1.514684 2.97393,2.926805 4.60742,4.22461 l 9.72851,7.679687 c 4.096,3.242997 6.14454,6.741098 6.14454,10.496094 -1e-5,2.987 -1.06818,5.46083 -3.20118,7.42383 -2.13299,1.877 -4.99217,2.8164 -8.57617,2.8164 -4.18099,0 -8.61755,-1.53542 -13.31055,-4.60742 -3.58399,2.133 -5.29209,5.45943 -5.12109,9.98242 3.243,1.963 6.35675,3.37161 9.34375,4.22461 2.987,0.939 5.97394,1.40821 8.96094,1.40821 7.65209,-0.14681 17.74497,-1.05963 26.86133,-8.875 6.36426,-5.50545 14.71492,-14.846933 19.91992,-26.878909 v 81.023439 c 1.90471,0.60159 3.89123,0.90402 5.88867,0.89648 0.939,0 1.91936,-0.0849 2.94336,-0.25586 0.9513,-0.15433 1.89195,-0.3683 2.81641,-0.64062 v -51.2207 c 0.72696,0.63647 1.47542,1.24644 2.26367,1.80664 4.28898,2.90098 9.13417,4.35156 14.53515,4.35156 5.402,0 10.16885,-1.45058 14.29883,-4.35156 4.21,-2.992 7.50569,-7.07224 9.88867,-12.24024 2.463,-5.16798 3.69336,-11.01498 3.69336,-17.542968 0,-6.527986 -1.23036,-12.331213 -3.69336,-17.408203 -2.38298,-5.07799 -5.67867,-9.067756 -9.88867,-11.96875 -4.20998,-2.991994 -8.97683,-4.488281 -14.29883,-4.488281 -5.32198,0 -10.12703,1.496287 -14.41601,4.488281 -1.35803,0.935779 -2.61488,1.997819 -3.79102,3.160157 v -1.337891 c -1.621,-0.852998 -3.45592,-1.449016 -5.5039,-1.791016 -1.963,-0.340998 -3.66816,-0.300045 -5.11914,0.126953 -3.44724,10.882961 -9.17441,22.655954 -13.44141,30.335938 -3.95909,7.321306 -7.04512,10.70817 -9.76536,12.95663 0.008,-0.25554 0.1052,-0.41588 0.1052,-0.88241 0,-3.754997 -0.89745,-7.124332 -2.68945,-10.111329 -1.707,-3.071997 -4.30764,-6.016034 -7.80664,-8.832032 l -9.72852,-7.935547 c -1.36499,-1.108998 -2.51803,-2.133266 -3.45703,-3.072265 -0.939,-0.938999 -1.70573,-1.877407 -2.30273,-2.816406 2.048,-3.583997 3.53951,-6.443174 4.47851,-8.576172 0.939,-2.133998 1.58088,-3.967908 1.92188,-5.503907 -0.512,-1.194998 -1.45141,-2.219266 -2.81641,-3.072265 -1.365,-0.852999 -2.90237,-1.450016 -4.60937,-1.791016 -0.8105,-0.2135 -1.59919,-0.332265 -2.36719,-0.353515 z m 81.30859,16.705078 c 5.004,0 9.01716,2.039148 12.03516,6.11914 3.098,4.079992 4.64648,9.429842 4.64648,16.048828 0,6.799988 -1.54848,12.240328 -4.64648,16.320308 -3.018,4.08 -7.0703,6.11915 -12.1543,6.11915 -5.08398,0 -9.17348,-2.03915 -12.27148,-6.11915 -3.019,-4.07998 -4.52734,-9.429837 -4.52735,-16.048823 10e-6,-6.708986 1.54849,-12.103602 4.64649,-16.183594 3.177,-4.170992 7.2675,-6.255859 12.27148,-6.255859 z"
       sodipodi:nodetypes="ssssscscssccccccscscscsccscssccccsccscsccccssscssccssccscccscssssccsscsscccscscscccccscsccccccccccccsccsccscccccccscccscccscsscscscscs" />
  </g>
  <defs
     id="defs5">
    <filter
       id="a"
       width="359.44"
       height="195.45599"
       x="0"
       y="0"
       color-interpolation-filters="sRGB"
       filterUnits="userSpaceOnUse">
      <feFlood
         flood-opacity="0"
         result="BackgroundImageFix"
         id="feFlood3" />
      <feColorMatrix
         in="SourceAlpha"
         result="hardAlpha"
         values="0 0 0 0 0 0 0 0 0 0 0 0 0 0 0 0 0 0 127 0"
         id="feColorMatrix3" />
      <feOffset
         dy="2"
         id="feOffset3" />
      <feGaussianBlur
         stdDeviation="12"
         id="feGaussianBlur3" />
      <feComposite
         in2="hardAlpha"
         operator="out"
         id="feComposite3" />
      <feColorMatrix
         values="0 0 0 0 0 0 0 0 0 0 0 0 0 0 0 0 0 0 0.2 0"
         id="feColorMatrix4" />
      <feBlend
         in2="BackgroundImageFix"
         result="effect1_dropShadow_125_61"
         id="feBlend4"
         mode="normal" />
      <feBlend
         in="SourceGraphic"
         in2="effect1_dropShadow_125_61"
         result="shape"
         id="feBlend5"
         mode="normal" />
    </filter>
  </defs>
</svg>
